<?xml version="1.0" encoding="UTF-8"?>
<svg xmlns="http://www.w3.org/2000/svg" xmlns:xlink="http://www.w3.org/1999/xlink" width="8000" height="3000" viewBox="0 0 8000 3000">
<path fill-rule="evenodd" fill="rgb(0%, 0%, 0%)" fill-opacity="1" d="M 888.550781 2318.929688 L 888.550781 1852.601562 L 671.011719 1852.601562 L 671.011719 2452.921875 L 480 2452.921875 L 480 2470.601562 L 688.695312 2470.601562 L 688.695312 1870.289062 L 870.867188 1870.289062 L 870.867188 2318.929688 L 804.25 2318.929688 L 804.25 2470.601562 L 888.550781 2470.601562 L 888.550781 2336.613281 L 955.171875 2336.613281 L 955.171875 1670.429688 L 1088.410156 1670.429688 L 1088.410156 1537.191406 L 1155.019531 1537.191406 L 1155.019531 1470.578125 L 1203.960938 1470.578125 L 1203.960938 1537.191406 L 1270.578125 1537.191406 L 1270.578125 1670.429688 L 1403.808594 1670.429688 L 1403.808594 2385.550781 L 1337.199219 2385.550781 L 1337.199219 2470.601562 L 1421.5 2470.601562 L 1421.5 2403.230469 L 1488.121094 2403.230469 L 1488.121094 1799.558594 C 1512.941406 1783.011719 1647.738281 1693.140625 1678 1672.96875 C 1678 1672.96875 1785.378906 1780.339844 1803.53125 1798.488281 L 1803.53125 2078.773438 L 1736.910156 2123.1875 L 1736.910156 2470.601562 L 1821.210938 2470.601562 L 1821.210938 2088.238281 L 1870.140625 2055.613281 L 1870.140625 2470.601562 L 1954.441406 2470.601562 L 1954.441406 1994.679688 L 1940.699219 1987.320312 L 1887.828125 2022.574219 L 1887.828125 1731.871094 L 1949.269531 1670.429688 L 2208.410156 1670.429688 L 2269.851562 1731.871094 L 2269.851562 2253.816406 L 2221.980469 2253.816406 L 2221.980469 2470.601562 L 2287.539062 2470.601562 L 2287.539062 2271.5 L 2336.46875 2271.5 L 2336.46875 2470.601562 L 2598 2470.601562 L 2598 2452.921875 L 2354.148438 2452.921875 L 2354.148438 2253.816406 L 2287.539062 2253.816406 L 2287.539062 1724.539062 L 2215.738281 1652.75 L 1941.941406 1652.75 L 1870.140625 1724.539062 L 1870.140625 2034.359375 L 1821.210938 2066.984375 L 1821.210938 1791.160156 L 1680.261719 1650.210938 L 1470.429688 1790.089844 L 1470.429688 2385.550781 L 1421.5 2385.550781 L 1421.5 1652.75 L 1288.261719 1652.75 L 1288.261719 1519.511719 L 1221.640625 1519.511719 L 1221.640625 1452.890625 L 1137.339844 1452.890625 L 1137.339844 1519.511719 L 1070.71875 1519.511719 L 1070.71875 1652.75 L 937.488281 1652.75 L 937.488281 2318.929688 Z M 2269.851562 2271.5 L 2239.671875 2271.5 C 2239.671875 2308.992188 2239.671875 2452.921875 2239.671875 2452.921875 L 2269.851562 2452.921875 Z M 1887.828125 2043.824219 L 1887.828125 2452.921875 L 1936.761719 2452.921875 L 1936.761719 2011.199219 Z M 1403.808594 2403.230469 L 1354.878906 2403.230469 L 1354.878906 2452.921875 L 1403.808594 2452.921875 Z M 870.867188 2336.613281 L 821.933594 2336.613281 C 821.933594 2365.144531 821.933594 2452.921875 821.933594 2452.921875 L 870.867188 2452.921875 Z M 1803.53125 2100.027344 L 1754.589844 2132.648438 L 1754.589844 2452.921875 L 1803.53125 2452.921875 L 1803.53125 2100.027344 "/>
<path fill-rule="evenodd" fill="rgb(0%, 0%, 0%)" fill-opacity="1" d="M 6068.25 2138.578125 L 5954.109375 2138.578125 L 5951.519531 2452.921875 L 5760 2452.921875 L 5760 2470.601562 L 5969.058594 2470.601562 L 5971.640625 2156.261719 L 6068.488281 2156.261719 L 6072.671875 2470.601562 L 6159.171875 2470.601562 L 6161.839844 2138.578125 L 6085.941406 2138.578125 L 6082.96875 1915.390625 C 6082.96875 1915.390625 6219.710938 1784.460938 6265.789062 1740.339844 L 6265.789062 2248.398438 L 6229.621094 2261.558594 L 6228.691406 2470.601562 L 6283.480469 2470.601562 L 6283.480469 2260.78125 L 6344.378906 2238.628906 L 6344.378906 2470.601562 L 6476.089844 2470.601562 L 6477.390625 1993.230469 L 6532.429688 1920.511719 L 6642.679688 1920.511719 L 6694.179688 1993.070312 L 6694.179688 2138.578125 L 6645.25 2138.578125 L 6643.621094 2470.601562 L 6711.871094 2470.601562 L 6711.871094 2156.261719 L 6894.480469 2156.261719 L 6894.480469 2295.75 L 6851.328125 2295.75 L 6851.738281 2470.601562 L 6912.160156 2470.601562 L 6912.160156 2313.433594 L 6974.78125 2313.433594 L 6974.78125 2470.601562 L 7104.789062 2470.601562 L 7104.789062 2257.871094 L 7165.699219 2201.855469 L 7165.699219 2470.601562 L 7261.960938 2470.601562 L 7261.960938 2109.429688 L 7247.140625 2102.921875 L 7183.378906 2161.566406 L 7183.378906 2038.460938 L 7266.511719 2038.460938 L 7266.539062 1971.769531 L 7322.871094 1971.769531 L 7322.871094 2038.460938 L 7399.570312 2038.460938 L 7405.25 2374.335938 L 7363.890625 2374.335938 L 7363.359375 2470.601562 L 7424.570312 2470.601562 L 7423.238281 2392.019531 L 7480.039062 2392.019531 L 7480.039062 2470.601562 L 7610.589844 2470.601562 L 7610.589844 2452.921875 L 7497.71875 2452.921875 L 7497.71875 2374.335938 L 7422.941406 2374.335938 L 7416.949219 2020.777344 L 7340.550781 2020.777344 L 7340.550781 1954.089844 L 7248.871094 1954.089844 L 7248.839844 2020.777344 L 7165.699219 2020.777344 L 7165.699219 2177.828125 L 7087.109375 2250.109375 L 7087.109375 2452.921875 L 6992.46875 2452.921875 L 6992.46875 2295.75 L 6912.160156 2295.75 L 6912.160156 2138.578125 L 6711.871094 2138.578125 L 6711.871094 1987.429688 L 6651.808594 1902.820312 L 6523.628906 1902.820312 L 6459.730469 1987.269531 L 6458.449219 2452.921875 C 6458.449219 2452.921875 6387.398438 2452.921875 6362.058594 2452.921875 L 6362.058594 2226.007812 L 6350.199219 2217.695312 L 6283.480469 2241.964844 L 6283.480469 1719.628906 L 6268.519531 1713.238281 L 6065.191406 1907.941406 Z M 6086.171875 2156.261719 L 6090.121094 2452.921875 L 6141.628906 2452.921875 C 6142.03125 2402.9375 6144.011719 2156.261719 6144.011719 2156.261719 Z M 6265.789062 2267.214844 L 6247.238281 2273.960938 C 6247.101562 2306.089844 6246.449219 2452.921875 6246.449219 2452.921875 L 6265.789062 2452.921875 Z M 6894.480469 2313.433594 L 6869.058594 2313.433594 L 6869.378906 2452.921875 L 6894.480469 2452.921875 Z M 6694.179688 2156.261719 L 6662.839844 2156.261719 L 6661.390625 2452.921875 L 6694.179688 2452.921875 Z M 7183.378906 2185.589844 L 7183.378906 2452.921875 L 7244.28125 2452.921875 C 7244.28125 2407.085938 7244.28125 2196.09375 7244.28125 2129.574219 Z M 7405.550781 2392.019531 L 7381.46875 2392.019531 L 7381.140625 2452.921875 L 7406.578125 2452.921875 L 7405.550781 2392.019531 "/>
<path fill-rule="evenodd" fill="rgb(0%, 0%, 0%)" fill-opacity="1" d="M 3917.148438 2227.511719 L 3885.058594 2227.511719 L 3885.058594 1854.96875 C 3885.058594 1852.621094 3884.121094 1850.359375 3882.460938 1848.699219 C 3880.789062 1847.039062 3878.53125 1846.121094 3876.179688 1846.128906 C 3876.179688 1846.128906 3815.078125 1846.390625 3791.78125 1846.488281 L 3791.78125 1759.621094 C 3791.78125 1754.820312 3787.960938 1750.898438 3783.160156 1750.78125 L 3706.800781 1748.921875 L 3706.800781 1618.679688 C 3706.800781 1613.789062 3702.839844 1609.828125 3697.960938 1609.828125 L 3671.011719 1609.828125 C 3666.128906 1609.828125 3662.171875 1613.789062 3662.171875 1618.679688 L 3662.171875 1748.710938 C 3640.03125 1748.710938 3583.960938 1748.710938 3583.960938 1748.710938 C 3579.078125 1748.710938 3575.121094 1752.671875 3575.121094 1757.550781 L 3575.121094 1846.128906 L 3484.46875 1846.128906 C 3479.589844 1846.128906 3475.628906 1850.078125 3475.628906 1854.96875 L 3475.628906 2192.273438 L 3391.75 2192.273438 L 3391.75 1979.328125 C 3391.75 1977.449219 3391.140625 1975.609375 3390.03125 1974.089844 L 3338.210938 1903.621094 C 3336.539062 1901.359375 3333.898438 1900.019531 3331.089844 1900.019531 L 3185.988281 1900.019531 C 3183.648438 1900.019531 3181.398438 1900.949219 3179.738281 1902.609375 L 3113.421875 1968.941406 C 3111.78125 1970.570312 3110.839844 1972.789062 3110.828125 1975.109375 C 3110.828125 1975.109375 3107.308594 2387.273438 3106.761719 2452.921875 L 3047.671875 2452.921875 L 3047.671875 2203.1875 C 3047.671875 2198.304688 3043.710938 2194.347656 3038.828125 2194.347656 L 2975.128906 2194.347656 L 2975.128906 1689.148438 C 2975.128906 1685.910156 2973.351562 1682.929688 2970.511719 1681.378906 C 2967.660156 1679.828125 2964.191406 1679.96875 2961.480469 1681.730469 L 2737.621094 1826.820312 C 2735.121094 1828.441406 2733.609375 1831.210938 2733.589844 1834.179688 L 2732.140625 2053.398438 L 2593.191406 2053.398438 C 2588.308594 2053.398438 2584.351562 2057.359375 2584.351562 2062.242188 L 2584.351562 2461.761719 C 2584.351562 2466.640625 2588.308594 2470.601562 2593.191406 2470.601562 C 2598.070312 2470.601562 2602.03125 2466.640625 2602.03125 2461.761719 C 2602.03125 2461.761719 2602.03125 2129.855469 2602.03125 2071.082031 L 2732.019531 2071.082031 L 2729.441406 2461.703125 C 2729.429688 2464.058594 2730.351562 2466.320312 2732.011719 2467.992188 C 2733.671875 2469.664062 2735.929688 2470.601562 2738.28125 2470.601562 L 2773.519531 2470.601562 C 2778.398438 2470.601562 2782.359375 2466.644531 2782.359375 2461.761719 L 2782.359375 2062.242188 C 2782.359375 2057.359375 2778.398438 2053.398438 2773.519531 2053.398438 L 2749.820312 2053.398438 L 2751.238281 1839.070312 C 2751.238281 1839.070312 2909.429688 1736.53125 2957.441406 1705.421875 L 2957.441406 2194.347656 L 2885.449219 2194.347656 C 2880.558594 2194.347656 2876.609375 2198.304688 2876.609375 2203.1875 L 2876.609375 2461.761719 C 2876.609375 2466.644531 2880.558594 2470.601562 2885.449219 2470.601562 L 2966.28125 2470.601562 C 2971.171875 2470.601562 2975.128906 2466.644531 2975.128906 2461.761719 L 2975.128906 2212.027344 L 3029.988281 2212.027344 L 3029.988281 2461.761719 C 3029.988281 2466.644531 3033.949219 2470.601562 3038.828125 2470.601562 L 3115.519531 2470.601562 C 3120.378906 2470.601562 3124.320312 2466.691406 3124.359375 2461.835938 L 3128.480469 1978.878906 L 3189.660156 1917.699219 L 3326.609375 1917.699219 C 3326.609375 1917.699219 3374.058594 1982.230469 3374.058594 1982.230469 L 3374.058594 2192.273438 L 3331.089844 2192.273438 C 3326.261719 2192.273438 3322.320312 2196.148438 3322.25 2200.972656 L 3318.101562 2461.621094 C 3318.058594 2463.988281 3318.980469 2466.273438 3320.640625 2467.964844 C 3322.300781 2469.652344 3324.570312 2470.601562 3326.941406 2470.601562 L 3382.898438 2470.601562 C 3387.789062 2470.601562 3391.75 2466.644531 3391.75 2461.761719 L 3391.75 2209.957031 L 3475.628906 2209.957031 L 3475.628906 2461.761719 C 3475.628906 2466.644531 3479.589844 2470.601562 3484.46875 2470.601562 L 3557.011719 2470.601562 C 3561.898438 2470.601562 3565.859375 2466.644531 3565.859375 2461.761719 L 3565.859375 2290.242188 C 3565.859375 2288.210938 3565.160156 2286.238281 3563.871094 2284.660156 L 3493.308594 2197.972656 L 3493.308594 1863.808594 L 3583.960938 1863.808594 C 3588.839844 1863.808594 3592.800781 1859.851562 3592.800781 1854.96875 L 3592.800781 1766.390625 L 3671.011719 1766.390625 C 3675.898438 1766.390625 3679.859375 1762.429688 3679.859375 1757.550781 L 3679.859375 1627.519531 L 3689.121094 1627.519531 L 3689.121094 1757.550781 C 3689.121094 1762.351562 3692.949219 1766.269531 3697.75 1766.390625 L 3774.101562 1768.25 L 3774.101562 1855.359375 C 3774.101562 1857.71875 3775.039062 1859.96875 3776.699219 1861.628906 C 3778.371094 1863.289062 3780.628906 1864.21875 3782.980469 1864.210938 C 3782.980469 1864.210938 3844.078125 1863.949219 3867.378906 1863.851562 L 3867.378906 2227.511719 L 3774.648438 2227.511719 C 3769.769531 2227.511719 3765.808594 2231.46875 3765.808594 2236.351562 L 3765.808594 2461.761719 C 3765.808594 2466.644531 3769.769531 2470.601562 3774.648438 2470.601562 L 3876.21875 2470.601562 C 3881.101562 2470.601562 3885.058594 2466.644531 3885.058594 2461.761719 L 3885.058594 2245.191406 L 3917 2245.191406 L 3915.050781 2461.683594 C 3915.03125 2464.039062 3915.949219 2466.308594 3917.609375 2467.984375 C 3919.269531 2469.660156 3921.53125 2470.601562 3923.890625 2470.601562 L 3961.199219 2470.601562 C 3966.078125 2470.601562 3970.039062 2466.644531 3970.039062 2461.761719 L 3970.039062 2236.351562 C 3970.039062 2231.46875 3966.078125 2227.511719 3961.199219 2227.511719 L 3934.839844 2227.511719 L 3940.980469 1544.460938 L 4158.890625 1387.078125 L 4300.539062 1387.078125 L 4297.421875 2202.636719 L 4236.871094 2202.636719 C 4231.988281 2202.636719 4228.03125 2206.597656 4228.03125 2211.480469 L 4228.03125 2461.761719 C 4228.03125 2466.644531 4231.988281 2470.601562 4236.871094 2470.601562 L 4305.269531 2470.601562 C 4310.140625 2470.601562 4314.101562 2466.664062 4314.109375 2461.796875 L 4315.039062 2220.320312 L 4450.359375 2220.320312 C 4455.25 2220.320312 4459.210938 2216.363281 4459.210938 2211.480469 C 4459.210938 2211.480469 4459.210938 1830.960938 4459.210938 1781.480469 L 4612.671875 1698.851562 L 4831.199219 1782.289062 L 4831.199219 2125.453125 L 4757.070312 2125.945312 C 4752.210938 2125.980469 4748.289062 2129.925781 4748.289062 2134.785156 L 4748.289062 2461.761719 C 4748.289062 2466.644531 4752.25 2470.601562 4757.128906 2470.601562 L 4840.039062 2470.601562 C 4844.921875 2470.601562 4848.878906 2466.644531 4848.878906 2461.761719 L 4848.878906 2143.015625 L 5003.230469 2141.988281 L 5003.230469 2461.761719 C 5003.230469 2466.644531 5007.191406 2470.601562 5012.078125 2470.601562 L 5068.039062 2470.601562 C 5072.921875 2470.601562 5076.878906 2466.644531 5076.878906 2461.761719 L 5076.878906 2132.714844 C 5076.878906 2130.359375 5075.941406 2128.101562 5074.269531 2126.441406 C 5072.601562 2124.78125 5070.339844 2123.859375 5067.980469 2123.871094 L 5020.921875 2124.1875 L 5020.921875 1559.121094 L 5395.710938 1559.121094 C 5395.710938 1559.121094 5477.710938 1651.148438 5492.398438 1667.640625 L 5492.398438 2078.273438 L 5420.410156 2078.273438 C 5415.519531 2078.273438 5411.558594 2082.230469 5411.558594 2087.113281 L 5411.558594 2461.761719 C 5411.558594 2466.644531 5415.519531 2470.601562 5420.410156 2470.601562 L 5501.238281 2470.601562 C 5506.128906 2470.601562 5510.078125 2466.644531 5510.078125 2461.761719 L 5510.078125 2095.957031 L 5680.921875 2095.957031 L 5676.878906 2461.664062 C 5676.851562 2464.027344 5677.769531 2466.300781 5679.429688 2467.980469 C 5681.089844 2469.65625 5683.351562 2470.601562 5685.71875 2470.601562 L 5926.148438 2470.601562 C 5931.03125 2470.601562 5935 2466.640625 5935 2461.761719 C 5935 2456.882812 5931.03125 2452.921875 5926.148438 2452.921875 L 5694.660156 2452.921875 L 5698.699219 2087.210938 C 5698.730469 2084.851562 5697.808594 2082.578125 5696.148438 2080.898438 C 5694.488281 2079.21875 5692.21875 2078.273438 5689.859375 2078.273438 L 5510.078125 2078.273438 L 5510.078125 1664.28125 C 5510.078125 1662.109375 5509.289062 1660.011719 5507.839844 1658.390625 L 5406.28125 1544.390625 C 5404.601562 1542.511719 5402.199219 1541.429688 5399.679688 1541.429688 L 5012.078125 1541.429688 C 5007.191406 1541.429688 5003.230469 1545.390625 5003.230469 1550.269531 L 5003.230469 2124.304688 L 4848.878906 2125.335938 L 4848.878906 1776.199219 C 4848.878906 1772.539062 4846.621094 1769.25 4843.191406 1767.941406 L 4615.191406 1680.890625 C 4612.789062 1679.96875 4610.109375 1680.148438 4607.851562 1681.359375 L 4446.171875 1768.421875 C 4443.308594 1769.960938 4441.519531 1772.949219 4441.519531 1776.199219 L 4441.519531 2202.636719 L 4315.109375 2202.636719 L 4318.261719 1378.269531 C 4318.269531 1375.921875 4317.339844 1373.660156 4315.679688 1372 C 4314.019531 1370.328125 4311.769531 1369.398438 4309.421875 1369.398438 L 4156.039062 1369.398438 C 4154.179688 1369.398438 4152.371094 1369.980469 4150.859375 1371.070312 L 3927 1532.738281 C 3924.730469 1534.390625 3923.359375 1537.019531 3923.339844 1539.828125 Z M 3867.378906 2245.191406 L 3783.488281 2245.191406 L 3783.488281 2452.921875 L 3867.378906 2452.921875 Z M 4831.199219 2143.136719 L 4765.96875 2143.570312 L 4765.96875 2452.921875 L 4831.199219 2452.921875 Z M 3493.308594 2225.984375 L 3493.308594 2452.921875 L 3548.171875 2452.921875 L 3548.171875 2293.386719 Z M 2749.710938 2071.082031 L 2747.179688 2452.921875 L 2764.679688 2452.921875 L 2764.679688 2071.082031 Z M 2957.441406 2212.027344 L 2894.289062 2212.027344 L 2894.289062 2452.921875 L 2957.441406 2452.921875 Z M 3374.058594 2209.957031 L 3339.789062 2209.957031 L 3335.921875 2452.921875 L 3374.058594 2452.921875 Z M 3934.679688 2245.191406 L 3932.808594 2452.921875 L 3952.359375 2452.921875 C 3952.359375 2412.257812 3952.359375 2245.191406 3952.359375 2245.191406 Z M 4297.359375 2220.320312 L 4245.710938 2220.320312 L 4245.710938 2452.921875 L 4296.460938 2452.921875 Z M 5020.921875 2141.871094 L 5020.921875 2452.921875 L 5059.199219 2452.921875 L 5059.199219 2141.613281 Z M 5492.398438 2095.957031 L 5429.25 2095.957031 L 5429.25 2452.921875 L 5492.398438 2452.921875 L 5492.398438 2095.957031 "/>
</svg>
